<svg width="63" height="64" viewBox="0 0 63 64" fill="none" xmlns="http://www.w3.org/2000/svg">
<path d="M26.0507 2.70966C29.5313 -1.2083 34.2636 -0.584716 37.2919 2.70966L39.1385 4.84776C39.778 5.54344 40.7033 5.9042 41.6448 5.82492L44.9281 4.84776C49.4032 3.88842 53.47 7.22703 53.47 12.4125V14.366C53.5647 15.4323 54.4963 16.1552 55.4582 16.625L58.4246 17.8644C62.7153 19.9601 63.7875 24.9323 60.662 29.1057L59.7742 30.2777C58.9777 31.3544 59.1413 32.7676 59.934 33.8471L60.8218 35.0903C64.0539 39.0682 62.2316 44.5257 57.6663 46.4323L55.1127 47.4989C54.151 47.9005 53.7741 48.5902 53.5943 49.6167L53.4165 52.9554C52.7951 57.5371 48.7258 59.6065 45.4607 59.1442L41.5717 58.1054C40.6376 57.9731 39.4761 58.2829 38.8546 59.2597L37.4517 61.1777C33.9709 65.1022 29.2731 64.4496 26.9031 62.1542L24.315 59.0198C23.6374 58.3636 22.7831 57.8035 21.7605 58.1893L17.8462 59.2597C14.6146 59.7172 10.8093 57.233 10.2003 54.0265L9.74829 49.386C9.56483 48.4199 8.92789 47.6014 8.03679 47.1861L5.29091 46.2425C1.16176 44.3184 -0.221235 39.6601 2.14963 35.7701L3.69727 33.6298C4.31889 32.6099 4.28934 31.3212 3.62159 30.3309L2.46729 28.6972C-0.800216 24.0444 1.45892 18.844 6.30087 17.2849L7.36877 16.941C8.54744 16.5615 9.68597 15.5826 9.78394 14.3482L10.0217 11.3517C10.4077 6.48789 14.846 3.69694 19.5142 5.1161L21.0249 5.57538C22.4813 6.14365 23.6221 5.65971 24.4168 4.794L26.0507 2.70966Z" fill="url(#paint0_linear_1952_2883)"/>
<path d="M26.0507 2.70966C29.5313 -1.2083 34.2636 -0.584716 37.2919 2.70966L39.1385 4.84776C39.778 5.54344 40.7033 5.9042 41.6448 5.82492L44.9281 4.84776C49.4032 3.88842 53.47 7.22703 53.47 12.4125V14.366C53.5647 15.4323 54.4963 16.1552 55.4582 16.625L58.4246 17.8644C62.7153 19.9601 63.7875 24.9323 60.662 29.1057L59.7742 30.2777C58.9777 31.3544 59.1413 32.7676 59.934 33.8471L60.8218 35.0903C64.0539 39.0682 62.2316 44.5257 57.6663 46.4323L55.1127 47.4989C54.151 47.9005 53.7741 48.5902 53.5943 49.6167L53.4165 52.9554C52.7951 57.5371 48.7258 59.6065 45.4607 59.1442L41.5717 58.1054C40.6376 57.9731 39.4761 58.2829 38.8546 59.2597L37.4517 61.1777C33.9709 65.1022 29.2731 64.4496 26.9031 62.1542L24.315 59.0198C23.6374 58.3636 22.7831 57.8035 21.7605 58.1893L17.8462 59.2597C14.6146 59.7172 10.8093 57.233 10.2003 54.0265L9.74829 49.386C9.56483 48.4199 8.92789 47.6014 8.03679 47.1861L5.29091 46.2425C1.16176 44.3184 -0.221235 39.6601 2.14963 35.7701L3.69727 33.6298C4.31889 32.6099 4.28934 31.3212 3.62159 30.3309L2.46729 28.6972C-0.800216 24.0444 1.45892 18.844 6.30087 17.2849L7.36877 16.941C8.54744 16.5615 9.68597 15.5826 9.78394 14.3482L10.0217 11.3517C10.4077 6.48789 14.846 3.69694 19.5142 5.1161L21.0249 5.57538C22.4813 6.14365 23.6221 5.65971 24.4168 4.794L26.0507 2.70966Z" fill="url(#paint1_radial_1952_2883)"/>
<path d="M26.0507 2.70966C29.5313 -1.2083 34.2636 -0.584716 37.2919 2.70966L39.1385 4.84776C39.778 5.54344 40.7033 5.9042 41.6448 5.82492L44.9281 4.84776C49.4032 3.88842 53.47 7.22703 53.47 12.4125V14.366C53.5647 15.4323 54.4963 16.1552 55.4582 16.625L58.4246 17.8644C62.7153 19.9601 63.7875 24.9323 60.662 29.1057L59.7742 30.2777C58.9777 31.3544 59.1413 32.7676 59.934 33.8471L60.8218 35.0903C64.0539 39.0682 62.2316 44.5257 57.6663 46.4323L55.1127 47.4989C54.151 47.9005 53.7741 48.5902 53.5943 49.6167L53.4165 52.9554C52.7951 57.5371 48.7258 59.6065 45.4607 59.1442L41.5717 58.1054C40.6376 57.9731 39.4761 58.2829 38.8546 59.2597L37.4517 61.1777C33.9709 65.1022 29.2731 64.4496 26.9031 62.1542L24.315 59.0198C23.6374 58.3636 22.7831 57.8035 21.7605 58.1893L17.8462 59.2597C14.6146 59.7172 10.8093 57.233 10.2003 54.0265L9.74829 49.386C9.56483 48.4199 8.92789 47.6014 8.03679 47.1861L5.29091 46.2425C1.16176 44.3184 -0.221235 39.6601 2.14963 35.7701L3.69727 33.6298C4.31889 32.6099 4.28934 31.3212 3.62159 30.3309L2.46729 28.6972C-0.800216 24.0444 1.45892 18.844 6.30087 17.2849L7.36877 16.941C8.54744 16.5615 9.68597 15.5826 9.78394 14.3482L10.0217 11.3517C10.4077 6.48789 14.846 3.69694 19.5142 5.1161L21.0249 5.57538C22.4813 6.14365 23.6221 5.65971 24.4168 4.794L26.0507 2.70966Z" fill="url(#paint2_radial_1952_2883)"/>
<path d="M26.0507 2.70966C29.5313 -1.2083 34.2636 -0.584716 37.2919 2.70966L39.1385 4.84776C39.778 5.54344 40.7033 5.9042 41.6448 5.82492L44.9281 4.84776C49.4032 3.88842 53.47 7.22703 53.47 12.4125V14.366C53.5647 15.4323 54.4963 16.1552 55.4582 16.625L58.4246 17.8644C62.7153 19.9601 63.7875 24.9323 60.662 29.1057L59.7742 30.2777C58.9777 31.3544 59.1413 32.7676 59.934 33.8471L60.8218 35.0903C64.0539 39.0682 62.2316 44.5257 57.6663 46.4323L55.1127 47.4989C54.151 47.9005 53.7741 48.5902 53.5943 49.6167L53.4165 52.9554C52.7951 57.5371 48.7258 59.6065 45.4607 59.1442L41.5717 58.1054C40.6376 57.9731 39.4761 58.2829 38.8546 59.2597L37.4517 61.1777C33.9709 65.1022 29.2731 64.4496 26.9031 62.1542L24.315 59.0198C23.6374 58.3636 22.7831 57.8035 21.7605 58.1893L17.8462 59.2597C14.6146 59.7172 10.8093 57.233 10.2003 54.0265L9.74829 49.386C9.56483 48.4199 8.92789 47.6014 8.03679 47.1861L5.29091 46.2425C1.16176 44.3184 -0.221235 39.6601 2.14963 35.7701L3.69727 33.6298C4.31889 32.6099 4.28934 31.3212 3.62159 30.3309L2.46729 28.6972C-0.800216 24.0444 1.45892 18.844 6.30087 17.2849L7.36877 16.941C8.54744 16.5615 9.68597 15.5826 9.78394 14.3482L10.0217 11.3517C10.4077 6.48789 14.846 3.69694 19.5142 5.1161L21.0249 5.57538C22.4813 6.14365 23.6221 5.65971 24.4168 4.794L26.0507 2.70966Z" fill="url(#paint3_radial_1952_2883)"/>
<path d="M26.0507 2.70966C29.5313 -1.2083 34.2636 -0.584716 37.2919 2.70966L39.1385 4.84776C39.778 5.54344 40.7033 5.9042 41.6448 5.82492L44.9281 4.84776C49.4032 3.88842 53.47 7.22703 53.47 12.4125V14.366C53.5647 15.4323 54.4963 16.1552 55.4582 16.625L58.4246 17.8644C62.7153 19.9601 63.7875 24.9323 60.662 29.1057L59.7742 30.2777C58.9777 31.3544 59.1413 32.7676 59.934 33.8471L60.8218 35.0903C64.0539 39.0682 62.2316 44.5257 57.6663 46.4323L55.1127 47.4989C54.151 47.9005 53.7741 48.5902 53.5943 49.6167L53.4165 52.9554C52.7951 57.5371 48.7258 59.6065 45.4607 59.1442L41.5717 58.1054C40.6376 57.9731 39.4761 58.2829 38.8546 59.2597L37.4517 61.1777C33.9709 65.1022 29.2731 64.4496 26.9031 62.1542L24.315 59.0198C23.6374 58.3636 22.7831 57.8035 21.7605 58.1893L17.8462 59.2597C14.6146 59.7172 10.8093 57.233 10.2003 54.0265L9.74829 49.386C9.56483 48.4199 8.92789 47.6014 8.03679 47.1861L5.29091 46.2425C1.16176 44.3184 -0.221235 39.6601 2.14963 35.7701L3.69727 33.6298C4.31889 32.6099 4.28934 31.3212 3.62159 30.3309L2.46729 28.6972C-0.800216 24.0444 1.45892 18.844 6.30087 17.2849L7.36877 16.941C8.54744 16.5615 9.68597 15.5826 9.78394 14.3482L10.0217 11.3517C10.4077 6.48789 14.846 3.69694 19.5142 5.1161L21.0249 5.57538C22.4813 6.14365 23.6221 5.65971 24.4168 4.794L26.0507 2.70966Z" fill="url(#paint4_radial_1952_2883)"/>
<path d="M26.0507 2.70966C29.5313 -1.2083 34.2636 -0.584716 37.2919 2.70966L39.1385 4.84776C39.778 5.54344 40.7033 5.9042 41.6448 5.82492L44.9281 4.84776C49.4032 3.88842 53.47 7.22703 53.47 12.4125V14.366C53.5647 15.4323 54.4963 16.1552 55.4582 16.625L58.4246 17.8644C62.7153 19.9601 63.7875 24.9323 60.662 29.1057L59.7742 30.2777C58.9777 31.3544 59.1413 32.7676 59.934 33.8471L60.8218 35.0903C64.0539 39.0682 62.2316 44.5257 57.6663 46.4323L55.1127 47.4989C54.151 47.9005 53.7741 48.5902 53.5943 49.6167L53.4165 52.9554C52.7951 57.5371 48.7258 59.6065 45.4607 59.1442L41.5717 58.1054C40.6376 57.9731 39.4761 58.2829 38.8546 59.2597L37.4517 61.1777C33.9709 65.1022 29.2731 64.4496 26.9031 62.1542L24.315 59.0198C23.6374 58.3636 22.7831 57.8035 21.7605 58.1893L17.8462 59.2597C14.6146 59.7172 10.8093 57.233 10.2003 54.0265L9.74829 49.386C9.56483 48.4199 8.92789 47.6014 8.03679 47.1861L5.29091 46.2425C1.16176 44.3184 -0.221235 39.6601 2.14963 35.7701L3.69727 33.6298C4.31889 32.6099 4.28934 31.3212 3.62159 30.3309L2.46729 28.6972C-0.800216 24.0444 1.45892 18.844 6.30087 17.2849L7.36877 16.941C8.54744 16.5615 9.68597 15.5826 9.78394 14.3482L10.0217 11.3517C10.4077 6.48789 14.846 3.69694 19.5142 5.1161L21.0249 5.57538C22.4813 6.14365 23.6221 5.65971 24.4168 4.794L26.0507 2.70966Z" fill="url(#paint5_radial_1952_2883)"/>
<path d="M26.0507 2.70966C29.5313 -1.2083 34.2636 -0.584716 37.2919 2.70966L39.1385 4.84776C39.778 5.54344 40.7033 5.9042 41.6448 5.82492L44.9281 4.84776C49.4032 3.88842 53.47 7.22703 53.47 12.4125V14.366C53.5647 15.4323 54.4963 16.1552 55.4582 16.625L58.4246 17.8644C62.7153 19.9601 63.7875 24.9323 60.662 29.1057L59.7742 30.2777C58.9777 31.3544 59.1413 32.7676 59.934 33.8471L60.8218 35.0903C64.0539 39.0682 62.2316 44.5257 57.6663 46.4323L55.1127 47.4989C54.151 47.9005 53.7741 48.5902 53.5943 49.6167L53.4165 52.9554C52.7951 57.5371 48.7258 59.6065 45.4607 59.1442L41.5717 58.1054C40.6376 57.9731 39.4761 58.2829 38.8546 59.2597L37.4517 61.1777C33.9709 65.1022 29.2731 64.4496 26.9031 62.1542L24.315 59.0198C23.6374 58.3636 22.7831 57.8035 21.7605 58.1893L17.8462 59.2597C14.6146 59.7172 10.8093 57.233 10.2003 54.0265L9.74829 49.386C9.56483 48.4199 8.92789 47.6014 8.03679 47.1861L5.29091 46.2425C1.16176 44.3184 -0.221235 39.6601 2.14963 35.7701L3.69727 33.6298C4.31889 32.6099 4.28934 31.3212 3.62159 30.3309L2.46729 28.6972C-0.800216 24.0444 1.45892 18.844 6.30087 17.2849L7.36877 16.941C8.54744 16.5615 9.68597 15.5826 9.78394 14.3482L10.0217 11.3517C10.4077 6.48789 14.846 3.69694 19.5142 5.1161L21.0249 5.57538C22.4813 6.14365 23.6221 5.65971 24.4168 4.794L26.0507 2.70966Z" fill="url(#paint6_radial_1952_2883)"/>
<path d="M26.0507 2.70966C29.5313 -1.2083 34.2636 -0.584716 37.2919 2.70966L39.1385 4.84776C39.778 5.54344 40.7033 5.9042 41.6448 5.82492L44.9281 4.84776C49.4032 3.88842 53.47 7.22703 53.47 12.4125V14.366C53.5647 15.4323 54.4963 16.1552 55.4582 16.625L58.4246 17.8644C62.7153 19.9601 63.7875 24.9323 60.662 29.1057L59.7742 30.2777C58.9777 31.3544 59.1413 32.7676 59.934 33.8471L60.8218 35.0903C64.0539 39.0682 62.2316 44.5257 57.6663 46.4323L55.1127 47.4989C54.151 47.9005 53.7741 48.5902 53.5943 49.6167L53.4165 52.9554C52.7951 57.5371 48.7258 59.6065 45.4607 59.1442L41.5717 58.1054C40.6376 57.9731 39.4761 58.2829 38.8546 59.2597L37.4517 61.1777C33.9709 65.1022 29.2731 64.4496 26.9031 62.1542L24.315 59.0198C23.6374 58.3636 22.7831 57.8035 21.7605 58.1893L17.8462 59.2597C14.6146 59.7172 10.8093 57.233 10.2003 54.0265L9.74829 49.386C9.56483 48.4199 8.92789 47.6014 8.03679 47.1861L5.29091 46.2425C1.16176 44.3184 -0.221235 39.6601 2.14963 35.7701L3.69727 33.6298C4.31889 32.6099 4.28934 31.3212 3.62159 30.3309L2.46729 28.6972C-0.800216 24.0444 1.45892 18.844 6.30087 17.2849L7.36877 16.941C8.54744 16.5615 9.68597 15.5826 9.78394 14.3482L10.0217 11.3517C10.4077 6.48789 14.846 3.69694 19.5142 5.1161L21.0249 5.57538C22.4813 6.14365 23.6221 5.65971 24.4168 4.794L26.0507 2.70966Z" fill="url(#paint7_radial_1952_2883)"/>
<path d="M26.0507 2.70966C29.5313 -1.2083 34.2636 -0.584716 37.2919 2.70966L39.1385 4.84776C39.778 5.54344 40.7033 5.9042 41.6448 5.82492L44.9281 4.84776C49.4032 3.88842 53.47 7.22703 53.47 12.4125V14.366C53.5647 15.4323 54.4963 16.1552 55.4582 16.625L58.4246 17.8644C62.7153 19.9601 63.7875 24.9323 60.662 29.1057L59.7742 30.2777C58.9777 31.3544 59.1413 32.7676 59.934 33.8471L60.8218 35.0903C64.0539 39.0682 62.2316 44.5257 57.6663 46.4323L55.1127 47.4989C54.151 47.9005 53.7741 48.5902 53.5943 49.6167L53.4165 52.9554C52.7951 57.5371 48.7258 59.6065 45.4607 59.1442L41.5717 58.1054C40.6376 57.9731 39.4761 58.2829 38.8546 59.2597L37.4517 61.1777C33.9709 65.1022 29.2731 64.4496 26.9031 62.1542L24.315 59.0198C23.6374 58.3636 22.7831 57.8035 21.7605 58.1893L17.8462 59.2597C14.6146 59.7172 10.8093 57.233 10.2003 54.0265L9.74829 49.386C9.56483 48.4199 8.92789 47.6014 8.03679 47.1861L5.29091 46.2425C1.16176 44.3184 -0.221235 39.6601 2.14963 35.7701L3.69727 33.6298C4.31889 32.6099 4.28934 31.3212 3.62159 30.3309L2.46729 28.6972C-0.800216 24.0444 1.45892 18.844 6.30087 17.2849L7.36877 16.941C8.54744 16.5615 9.68597 15.5826 9.78394 14.3482L10.0217 11.3517C10.4077 6.48789 14.846 3.69694 19.5142 5.1161L21.0249 5.57538C22.4813 6.14365 23.6221 5.65971 24.4168 4.794L26.0507 2.70966Z" fill="url(#paint8_radial_1952_2883)"/>
<path d="M26.0507 2.70966C29.5313 -1.2083 34.2636 -0.584716 37.2919 2.70966L39.1385 4.84776C39.778 5.54344 40.7033 5.9042 41.6448 5.82492L44.9281 4.84776C49.4032 3.88842 53.47 7.22703 53.47 12.4125V14.366C53.5647 15.4323 54.4963 16.1552 55.4582 16.625L58.4246 17.8644C62.7153 19.9601 63.7875 24.9323 60.662 29.1057L59.7742 30.2777C58.9777 31.3544 59.1413 32.7676 59.934 33.8471L60.8218 35.0903C64.0539 39.0682 62.2316 44.5257 57.6663 46.4323L55.1127 47.4989C54.151 47.9005 53.7741 48.5902 53.5943 49.6167L53.4165 52.9554C52.7951 57.5371 48.7258 59.6065 45.4607 59.1442L41.5717 58.1054C40.6376 57.9731 39.4761 58.2829 38.8546 59.2597L37.4517 61.1777C33.9709 65.1022 29.2731 64.4496 26.9031 62.1542L24.315 59.0198C23.6374 58.3636 22.7831 57.8035 21.7605 58.1893L17.8462 59.2597C14.6146 59.7172 10.8093 57.233 10.2003 54.0265L9.74829 49.386C9.56483 48.4199 8.92789 47.6014 8.03679 47.1861L5.29091 46.2425C1.16176 44.3184 -0.221235 39.6601 2.14963 35.7701L3.69727 33.6298C4.31889 32.6099 4.28934 31.3212 3.62159 30.3309L2.46729 28.6972C-0.800216 24.0444 1.45892 18.844 6.30087 17.2849L7.36877 16.941C8.54744 16.5615 9.68597 15.5826 9.78394 14.3482L10.0217 11.3517C10.4077 6.48789 14.846 3.69694 19.5142 5.1161L21.0249 5.57538C22.4813 6.14365 23.6221 5.65971 24.4168 4.794L26.0507 2.70966Z" fill="url(#paint9_radial_1952_2883)"/>
<path d="M31.6971 56.361C45.1839 56.361 56.1168 45.4279 56.1168 31.9414C56.1168 18.4546 45.1839 7.52148 31.6971 7.52148C18.2104 7.52148 7.27734 18.4546 7.27734 31.9414C7.27734 45.4279 18.2104 56.361 31.6971 56.361Z" fill="url(#paint10_radial_1952_2883)"/>
<defs>
<linearGradient id="paint0_linear_1952_2883" x1="50.6627" y1="10.7472" x2="15.7707" y2="55.2645" gradientUnits="userSpaceOnUse">
<stop stop-color="#FC8B23"/>
<stop offset="1" stop-color="#E67639"/>
</linearGradient>
<radialGradient id="paint1_radial_1952_2883" cx="0" cy="0" r="1" gradientUnits="userSpaceOnUse" gradientTransform="translate(37.5712 2.95145) rotate(138.155) scale(8.58922 7.57835)">
<stop offset="0.300161" stop-color="#FFA13A"/>
<stop offset="1" stop-color="#FFA13A" stop-opacity="0"/>
</radialGradient>
<radialGradient id="paint2_radial_1952_2883" cx="0" cy="0" r="1" gradientUnits="userSpaceOnUse" gradientTransform="translate(15.224 0.23994) rotate(67.8105) scale(13.6548 12.0478)">
<stop offset="0.300161" stop-color="#FF942A"/>
<stop offset="1" stop-color="#FF942A" stop-opacity="0"/>
</radialGradient>
<radialGradient id="paint3_radial_1952_2883" cx="0" cy="0" r="1" gradientUnits="userSpaceOnUse" gradientTransform="translate(51.8963 12.979) rotate(-164.745) scale(5.44436 7.53843)">
<stop offset="0.300161" stop-color="#FFA13D"/>
<stop offset="1" stop-color="#FFA13D" stop-opacity="0"/>
</radialGradient>
<radialGradient id="paint4_radial_1952_2883" cx="0" cy="0" r="1" gradientUnits="userSpaceOnUse" gradientTransform="translate(62.8788 20.9057) rotate(154.195) scale(9.65312 7.12955)">
<stop offset="0.300161" stop-color="#FFA13D"/>
<stop offset="1" stop-color="#FFA13D" stop-opacity="0"/>
</radialGradient>
<radialGradient id="paint5_radial_1952_2883" cx="0" cy="0" r="1" gradientUnits="userSpaceOnUse" gradientTransform="translate(64.9798 37.2361) rotate(-173.379) scale(10.7679 6.06808)">
<stop offset="0.300161" stop-color="#FFA13D"/>
<stop offset="1" stop-color="#FFA13D" stop-opacity="0"/>
</radialGradient>
<radialGradient id="paint6_radial_1952_2883" cx="0" cy="0" r="1" gradientUnits="userSpaceOnUse" gradientTransform="translate(55.3343 49.7467) rotate(-43.9639) scale(9.76734 9.40969)">
<stop stop-color="#E0762A"/>
<stop offset="1" stop-color="#E0762A" stop-opacity="0"/>
</radialGradient>
<radialGradient id="paint7_radial_1952_2883" cx="0" cy="0" r="1" gradientUnits="userSpaceOnUse" gradientTransform="translate(10.067 47.4548) rotate(-127.747) scale(7.48813 7.21392)">
<stop stop-color="#E0762A"/>
<stop offset="1" stop-color="#E0762A" stop-opacity="0"/>
</radialGradient>
<radialGradient id="paint8_radial_1952_2883" cx="0" cy="0" r="1" gradientUnits="userSpaceOnUse" gradientTransform="translate(-0.151587 22.147) rotate(25.2777) scale(7.60415 9.1907)">
<stop stop-color="#F0851D"/>
<stop offset="1" stop-color="#F0851D" stop-opacity="0"/>
</radialGradient>
<radialGradient id="paint9_radial_1952_2883" cx="0" cy="0" r="1" gradientUnits="userSpaceOnUse" gradientTransform="translate(45.2391 60.5915) rotate(-142.487) scale(8.86565 8.36395)">
<stop offset="0.336586" stop-color="#E3745B"/>
<stop offset="1" stop-color="#E3745B" stop-opacity="0"/>
</radialGradient>
<radialGradient id="paint10_radial_1952_2883" cx="0" cy="0" r="1" gradientUnits="userSpaceOnUse" gradientTransform="translate(45.5548 17.7939) rotate(117.739) scale(43.575 53.811)">
<stop offset="0.17178" stop-color="#FFD13D"/>
<stop offset="1" stop-color="#D89A29"/>
</radialGradient>
</defs>
</svg>
