<svg width="14" height="14" viewBox="0 0 14 14" fill="none" xmlns="http://www.w3.org/2000/svg">
<path d="M6.05385 8.43109L4.50512 6.88238C4.41282 6.79006 4.29679 6.74284 4.15705 6.74071C4.01731 6.73856 3.89914 6.78579 3.80257 6.88238C3.70599 6.97895 3.6577 7.09604 3.6577 7.23364C3.6577 7.37124 3.70599 7.48833 3.80257 7.58491L5.63205 9.41439C5.75256 9.5349 5.89316 9.59516 6.05385 9.59516C6.21453 9.59516 6.35512 9.5349 6.47563 9.41439L10.1846 5.70543C10.2769 5.61313 10.3241 5.4971 10.3263 5.35736C10.3284 5.21761 10.2812 5.09945 10.1846 5.00288C10.088 4.9063 9.97093 4.85801 9.83333 4.85801C9.69573 4.85801 9.57864 4.9063 9.48207 5.00288L6.05385 8.43109ZM7.00112 13.3336C6.12516 13.3336 5.30181 13.1674 4.53105 12.835C3.76028 12.5025 3.08983 12.0513 2.51968 11.4815C1.94953 10.9116 1.49816 10.2414 1.16557 9.47098C0.832978 8.70056 0.666683 7.87738 0.666683 7.00143C0.666683 6.12547 0.832906 5.30211 1.16535 4.53136C1.49779 3.76059 1.94896 3.09014 2.51885 2.51999C3.08875 1.94984 3.75891 1.49847 4.52933 1.16588C5.29974 0.833287 6.12293 0.666992 6.99888 0.666992C7.87484 0.666992 8.6982 0.833215 9.46895 1.16566C10.2397 1.4981 10.9102 1.94927 11.4803 2.51916C12.0505 3.08906 12.5018 3.75922 12.8344 4.52964C13.167 5.30005 13.3333 6.12324 13.3333 6.99919C13.3333 7.87515 13.1671 8.6985 12.8347 9.46926C12.5022 10.24 12.051 10.9105 11.4812 11.4806C10.9113 12.0508 10.2411 12.5022 9.47067 12.8347C8.70026 13.1673 7.87707 13.3336 7.00112 13.3336Z" fill="#1C1B1F"/>
</svg>
