<svg width="16" height="16" viewBox="0 0 16 16" fill="none" xmlns="http://www.w3.org/2000/svg">
<path d="M1.25 8C1.25 9.33502 1.64588 10.6401 2.38758 11.7501C3.12928 12.8601 4.18349 13.7253 5.41689 14.2362C6.65029 14.7471 8.00749 14.8807 9.31686 14.6203C10.6262 14.3598 11.829 13.717 12.773 12.773C13.717 11.829 14.3598 10.6262 14.6203 9.31686C14.8808 8.00748 14.7471 6.65029 14.2362 5.41688C13.7253 4.18348 12.8601 3.12928 11.7501 2.38758C10.6401 1.64588 9.33502 1.25 8 1.25C6.2104 1.25198 4.49466 1.96378 3.22922 3.22922C1.96378 4.49466 1.25199 6.21039 1.25 8ZM13.25 8C13.25 9.03835 12.9421 10.0534 12.3652 10.9167C11.7883 11.7801 10.9684 12.453 10.0091 12.8504C9.04978 13.2477 7.99418 13.3517 6.97578 13.1491C5.95738 12.9465 5.02191 12.4465 4.28769 11.7123C3.55346 10.9781 3.05345 10.0426 2.85088 9.02422C2.6483 8.00582 2.75227 6.95022 3.14963 5.99091C3.54699 5.0316 4.2199 4.21166 5.08326 3.63478C5.94661 3.0579 6.96165 2.75 8 2.75C9.39193 2.75149 10.7264 3.30509 11.7107 4.28933C12.6949 5.27357 13.2485 6.60807 13.25 8ZM8 4.75C8.19891 4.75 8.38968 4.82901 8.53033 4.96967C8.67098 5.11032 8.75 5.30108 8.75 5.5V7.25H10.5C10.6989 7.25 10.8897 7.32902 11.0303 7.46967C11.171 7.61032 11.25 7.80108 11.25 8C11.25 8.19891 11.171 8.38968 11.0303 8.53033C10.8897 8.67098 10.6989 8.75 10.5 8.75H8.75V10.5C8.75 10.6989 8.67098 10.8897 8.53033 11.0303C8.38968 11.171 8.19891 11.25 8 11.25C7.80109 11.25 7.61032 11.171 7.46967 11.0303C7.32902 10.8897 7.25 10.6989 7.25 10.5V8.75H5.5C5.30109 8.75 5.11032 8.67098 4.96967 8.53033C4.82902 8.38968 4.75 8.19891 4.75 8C4.75 7.80108 4.82902 7.61032 4.96967 7.46967C5.11032 7.32902 5.30109 7.25 5.5 7.25L7.25 7.25V5.5C7.25 5.30108 7.32902 5.11032 7.46967 4.96967C7.61032 4.82901 7.80109 4.75 8 4.75Z" fill="#0954A5"/>
</svg>
