<svg width="16" height="16" viewBox="0 0 16 16" fill="none" xmlns="http://www.w3.org/2000/svg">
<g opacity="0.6">
<mask id="mask0_1036_2966" style="mask-type:alpha" maskUnits="userSpaceOnUse" x="0" y="0" width="16" height="16">
<rect width="16" height="16" fill="#D9D9D9"/>
</mask>
<g mask="url(#mask0_1036_2966)">
<path d="M8.00015 8.70901L5.83604 10.8731C5.73946 10.9697 5.62237 11.0169 5.48475 11.0148C5.34715 11.0127 5.23007 10.9633 5.13349 10.8667C5.03691 10.7702 4.98862 10.652 4.98862 10.5122C4.98862 10.3725 5.03691 10.2544 5.13349 10.1578L7.29121 8.00006L5.12707 5.85261C5.03049 5.75604 4.98328 5.63787 4.98542 5.49813C4.98755 5.35838 5.03691 5.24022 5.13349 5.14365C5.23007 5.04707 5.34823 4.99878 5.48797 4.99878C5.62771 4.99878 5.74586 5.04707 5.84244 5.14365L8.00015 7.30778L10.1476 5.14365C10.2442 5.04707 10.3613 4.99878 10.4989 4.99878C10.6365 4.99878 10.7536 5.04707 10.8502 5.14365C10.9536 5.24707 11.0053 5.36694 11.0053 5.50326C11.0053 5.63959 10.9536 5.75604 10.8502 5.85261L8.69244 8.00006L10.8566 10.1642C10.9531 10.2608 11.0014 10.3779 11.0014 10.5155C11.0014 10.6531 10.9531 10.7702 10.8566 10.8667C10.7531 10.9701 10.6333 11.0218 10.497 11.0218C10.3606 11.0218 10.2442 10.9701 10.1476 10.8667L8.00015 8.70901Z" fill="#060C44"/>
</g>
</g>
</svg>
